<svg width="10" height="12" viewBox="0 0 10 12" fill="none" xmlns="http://www.w3.org/2000/svg">
<path d="M5.7632 6.4C6.0432 6.88 7.2232 8.1 7.5632 8.4C8.1232 8.88 9.4632 10.16 9.4632 10.66C9.4632 11.12 9.1832 11.96 8.4632 11.96C8.0232 11.96 7.8032 11.72 7.5032 11.46C7.2432 11.42 7.0232 11.1 6.9232 10.6C6.8232 10.18 5.9032 9.46 5.5232 9.06C5.4432 8.98 4.8632 8.32 4.8032 8.32C4.7832 8.32 4.8632 8.34 4.8432 8.38C4.7632 8.66 4.7232 8.94 4.5832 9.2C4.2632 9.78 4.0832 10.02 3.9832 10.7C3.9232 11.28 3.3832 11.6 2.8032 11.6C2.4432 11.6 1.8432 11.3 1.6832 10.68C1.6432 10.48 1.5232 10.3 1.4632 10.1C1.2832 9.42 1.9232 9.52 2.0432 9.08C2.1032 8.82 2.1832 8.62 2.4632 8.5C2.6232 8.44 2.5032 7.78 2.8832 7.48C2.9432 7.44 2.9632 7.4 2.9832 7.3V7.2C3.1032 6.5 3.4632 7.04 2.9832 6.44L2.7432 6.14C2.5032 5.86 2.2432 5.66 2.0232 5.4C1.8632 5.18 1.6432 4.84 1.4032 4.76C0.903203 4.6 0.483203 4.34 0.483203 3.7C0.483203 3.1 0.883203 2.68 1.3832 2.68C1.9032 2.68 2.1832 3.3 2.4432 3.42C2.8032 3.58 3.6232 4.38 3.8832 4.72C3.9832 4.86 3.9432 4.9 4.1232 4.9C4.3232 4.9 4.6432 3.94 4.7032 3.78C4.9832 3.08 5.4832 2.14 5.9432 1.68L6.2232 1.4C6.4232 1.18 6.6632 0.979999 6.9832 0.979999C7.6632 0.979999 8.4832 2.12 8.0432 2.64C7.6232 3.14 7.1632 3.58 6.8832 4.18C6.7232 4.56 6.5832 5.02 6.3232 5.38C6.1032 5.7 6.1032 6.12 5.7632 6.4Z" fill="white"/>
</svg>
