<svg width="16" height="16" viewBox="0 0 16 16" fill="none" xmlns="http://www.w3.org/2000/svg">
<g id="TY">
<path id="Vector" d="M15.2695 4.33595C15.5862 5.52762 15.5862 8.01095 15.5862 8.01095C15.5862 8.01095 15.5862 10.4943 15.2695 11.6859C15.0945 12.3415 14.5806 12.8387 13.9278 13.0137C12.7445 13.3332 8.00005 13.3332 8.00005 13.3332C8.00005 13.3332 3.25561 13.3332 2.07227 13.0137C1.4195 12.8387 0.905607 12.3415 0.730607 11.6859C0.41394 10.4943 0.41394 8.01095 0.41394 8.01095C0.41394 8.01095 0.41394 5.52762 0.730607 4.33595C0.905607 3.67761 1.4195 3.16095 2.07227 2.98595C3.25561 2.6665 8.00005 2.6665 8.00005 2.6665C8.00005 2.6665 12.7445 2.6665 13.9278 2.98595C14.5806 3.16095 15.0945 3.67761 15.2695 4.33595ZM6.44727 10.2665L10.4112 8.01095L6.44727 5.75539V10.2665Z" fill="white"/>
</g>
</svg>
