<svg width="142" height="31" viewBox="0 0 142 31" fill="none" xmlns="http://www.w3.org/2000/svg">
<g filter="url(#filter0_d_160_10972)">
<path d="M78.8593 21.3526C78.5678 21.6441 77.8921 22.0416 77.5078 22.1476C77.2428 22.2271 76.9911 22.2403 76.7261 22.3596C76.6333 22.3993 76.5008 22.4523 76.3418 22.4523C76.0768 22.4523 75.4408 22.2536 75.3216 22.2006C75.3083 22.2006 75.2686 22.1873 75.2686 22.2271C75.2686 22.4788 75.4011 23.4196 75.4276 23.8436C75.4541 24.3338 75.2951 25.4203 74.9108 25.4203C73.9701 25.4203 74.0098 23.9893 73.9171 23.3931C73.8773 23.0486 73.7846 21.6308 73.8906 21.3923C73.9833 21.1406 74.0496 20.7563 74.1291 20.4913C74.2351 20.0938 74.3676 19.6168 74.5398 19.3783C74.8048 18.9808 75.9443 17.6028 76.9646 17.6028C77.8523 17.6028 79.2303 19.2856 79.2303 20.4118C79.2303 20.8491 79.0846 21.1273 78.8593 21.3526ZM77.0573 18.9013C76.5803 18.9013 76.1166 19.2591 75.8516 19.6301C75.7323 19.7891 75.6263 19.9613 75.4938 20.0938C75.3216 20.2528 75.3348 20.6636 75.3348 20.8756C75.3348 21.0346 75.7588 21.1273 76.3418 21.1273C76.4611 21.1273 76.7791 21.1273 76.9116 21.0346L76.9646 21.0081C77.0043 20.9816 77.0573 20.9418 77.1501 20.9286C77.3621 20.8623 78.0643 20.2926 78.0643 19.9746C78.0643 19.6036 77.4283 18.9013 77.0573 18.9013ZM82.5502 21.6573C81.8082 21.5646 80.6422 21.0478 80.6422 20.1601C80.6422 19.6698 81.3577 18.6098 81.9539 18.0798C82.5502 17.5631 83.6499 16.9668 83.9282 16.9668C84.2594 16.9668 84.3919 17.2981 84.5907 17.5233C84.6702 17.6161 84.7232 17.7088 84.7232 17.8016C84.7232 17.9208 84.4847 18.4508 84.1799 18.4508C84.0607 18.4508 84.0077 18.3978 83.9017 18.3448C83.6764 18.4906 83.5307 18.7423 83.2922 18.8748C83.1067 18.9676 82.6429 19.3253 82.4309 19.5903C82.1924 19.8818 82.0467 20.1601 82.0467 20.2661C82.0467 20.3853 82.1262 20.3191 82.5237 20.2926C83.1067 20.2528 83.2922 20.3853 83.7162 20.6636C84.0739 20.9021 84.5244 21.3526 84.2594 21.7633C83.9944 22.1608 83.5439 22.5981 83.2127 22.9691C83.0007 23.2076 82.7224 23.5256 82.7224 23.8568C82.7224 24.0556 82.8549 24.0291 83.1199 24.0291C83.5307 24.0291 84.8557 23.9893 85.1604 23.8436C85.7169 23.5918 86.1012 24.0158 85.7434 24.3736C85.5182 24.5988 85.1737 24.9433 84.6834 25.0626C84.2197 25.1818 83.3849 25.2878 82.8947 25.2878C82.3779 25.2878 81.4637 24.7711 81.4372 24.1483C81.4239 23.8038 81.1722 23.9363 81.2517 23.3798C81.3179 22.9691 81.5564 22.7306 81.8214 22.4523C81.9539 22.3066 82.0069 22.1476 82.1527 22.0018L82.5502 21.6573ZM90.1166 19.2856C89.7853 19.3651 89.3083 19.4976 89.1626 19.6301C89.0566 19.7228 88.5796 20.0143 88.5796 20.1336C88.5796 20.2263 88.5928 20.3588 89.3746 20.6768C89.7986 20.8491 89.9841 21.1406 90.2888 21.4453C90.4346 21.5911 90.6201 21.8163 90.6201 22.3066C90.6201 22.7836 90.4478 23.1281 90.1828 23.3931C89.7853 23.7906 89.2951 24.0291 88.7783 24.2411C88.5531 24.3338 88.2616 24.4266 87.9568 24.4266C87.2943 24.4266 87.0823 24.0291 87.0823 23.6978C87.0823 23.4328 87.2413 22.9558 87.7846 22.9558C88.1026 22.9558 88.1688 23.0751 88.5001 22.9426C88.7518 22.8366 88.9506 22.6776 89.2023 22.5716C89.4408 22.4656 89.4011 22.4523 89.4011 22.2271C89.4011 22.0813 89.2818 22.0416 89.1758 21.9886C88.8843 21.8428 88.6061 21.7103 88.3543 21.5248C88.2351 21.4321 88.1158 21.3526 87.9701 21.2863C87.4666 21.0478 87.2016 20.5841 87.2016 20.0806C87.2016 19.5903 87.5196 18.7953 88.3676 18.3846C89.1626 18.0003 89.4408 17.9606 89.9178 17.9606C90.4478 17.9606 90.7658 18.1991 90.7658 18.5568C90.7658 18.8748 90.5141 19.1928 90.1166 19.2856ZM96.0457 23.4858C95.794 23.8038 95.37 24.1748 94.7472 24.1748C93.8727 24.1748 93.4885 23.7508 92.9585 23.1943C92.9187 23.1413 92.879 23.1148 92.8525 23.0883C92.4417 22.7438 92.2165 21.7368 92.2165 21.2333C92.2165 20.6768 92.3092 19.6963 92.4947 19.5108C92.6405 19.3783 92.6007 18.9543 93.0777 18.9013C93.3162 18.8748 93.6077 18.9146 93.5812 18.7291C93.5415 18.3978 93.727 17.9606 94.1907 17.9606C94.522 17.9606 94.8135 18.0666 95.0255 18.5038C95.1977 18.8616 95.6747 19.0868 95.794 19.4578C95.9132 19.8023 96.4167 20.1468 96.3107 20.5973C96.2842 20.7166 96.3637 20.9551 96.4035 21.0611C96.4697 21.2996 96.5625 21.6043 96.5625 21.9753C96.5625 22.7173 96.3107 23.1546 96.0457 23.4858ZM94.5352 19.6433C94.469 20.0806 94.3895 20.3323 93.8462 20.1733C93.5945 20.1071 93.6607 20.2793 93.621 20.5178C93.568 20.8358 93.674 21.4718 93.674 21.8428C93.674 22.3198 93.9125 22.2403 94.0715 22.5451C94.0847 22.5716 94.1112 22.6511 94.1377 22.6776C94.1642 22.6908 94.257 22.7306 94.522 22.7306C94.946 22.7306 94.8797 22.5053 95.1447 22.2138C95.3965 21.9356 95.2772 21.2996 95.2772 20.9418C95.2772 20.3986 94.893 20.2263 94.6545 19.7891C94.6147 19.7096 94.575 19.6698 94.5352 19.6433ZM106.899 21.3526C106.608 21.6441 105.932 22.0416 105.548 22.1476C105.283 22.2271 105.031 22.2403 104.766 22.3596C104.673 22.3993 104.541 22.4523 104.382 22.4523C104.117 22.4523 103.481 22.2536 103.361 22.2006C103.348 22.2006 103.308 22.1873 103.308 22.2271C103.308 22.4788 103.441 23.4196 103.467 23.8436C103.494 24.3338 103.335 25.4203 102.951 25.4203C102.01 25.4203 102.05 23.9893 101.957 23.3931C101.917 23.0486 101.824 21.6308 101.93 21.3923C102.023 21.1406 102.089 20.7563 102.169 20.4913C102.275 20.0938 102.407 19.6168 102.58 19.3783C102.845 18.9808 103.984 17.6028 105.004 17.6028C105.892 17.6028 107.27 19.2856 107.27 20.4118C107.27 20.8491 107.124 21.1273 106.899 21.3526ZM105.097 18.9013C104.62 18.9013 104.156 19.2591 103.891 19.6301C103.772 19.7891 103.666 19.9613 103.534 20.0938C103.361 20.2528 103.375 20.6636 103.375 20.8756C103.375 21.0346 103.799 21.1273 104.382 21.1273C104.501 21.1273 104.819 21.1273 104.951 21.0346L105.004 21.0081C105.044 20.9816 105.097 20.9418 105.19 20.9286C105.402 20.8623 106.104 20.2926 106.104 19.9746C106.104 19.6036 105.468 18.9013 105.097 18.9013ZM113.545 24.0026C113.359 24.1748 112.644 24.7446 111.491 24.7446C110.272 24.7446 108.987 23.9628 108.987 21.2333C108.987 20.2131 109.238 18.8616 109.265 18.5568C109.318 18.1593 109.212 17.3378 109.861 17.3378C110.298 17.3378 110.656 17.7751 110.656 18.1858C110.656 18.4376 110.497 18.6363 110.471 18.8616C110.457 19.0603 110.259 20.0143 110.259 20.5708C110.259 21.1273 110.404 22.3728 110.669 22.8896C110.934 23.3798 111.067 23.4196 111.451 23.4196C111.862 23.4196 112.405 23.1811 112.71 22.9823C113.054 22.7571 113.492 22.7306 113.69 23.0353C113.863 23.2871 113.783 23.7906 113.545 24.0026ZM119.403 19.0868C119.589 19.5241 119.721 20.8756 119.721 21.2863C119.721 22.1608 119.602 23.2341 119.297 23.7773C119.006 24.2941 118.409 24.9036 117.72 24.9036C117.111 24.9036 116.422 24.6121 116.157 24.1218C115.958 23.7641 115.653 23.7376 115.402 23.2208C115.15 22.6908 114.554 21.0346 114.554 19.9481C114.554 18.7556 115.084 17.8678 115.455 17.8678C115.759 17.8678 115.865 18.0268 115.985 18.2521C116.077 18.4508 116.21 18.8881 116.011 19.1266C115.958 19.1928 115.971 19.3253 115.971 19.4843C115.971 19.7228 115.985 19.9613 115.918 20.1866C115.839 20.5311 116.144 21.3526 116.25 21.7103C116.329 22.0018 116.528 22.8366 116.753 23.0353C117.031 23.2606 117.058 23.5388 117.495 23.5388C117.853 23.5388 118.396 23.1943 118.396 21.3128C118.396 20.1998 118.29 19.3518 118.012 18.3051C117.919 17.9871 117.667 17.8678 118.091 17.4836C118.701 16.9138 118.966 17.7353 119.575 17.8281C119.96 17.8811 119.96 18.5303 119.867 18.8351C119.827 18.9543 119.721 19.1001 119.522 19.1001C119.483 19.1001 119.443 19.0868 119.403 19.0868ZM128.755 23.6978C128.291 23.6978 128.106 23.5786 128.053 23.0353C128.013 22.6246 128 22.1873 127.827 21.8031C127.642 21.4056 127.562 20.9683 127.536 20.5178C127.523 20.1733 127.562 19.4446 127.403 19.4446C127.258 19.4446 127.112 19.8023 127.032 20.0673C126.953 20.3191 126.622 20.9153 126.608 21.1141C126.595 21.4188 126.343 21.6308 126.29 21.9356C126.198 22.4788 126.012 23.2341 125.31 23.2341C124.157 23.2341 124.091 21.4453 123.905 20.6371C123.866 20.4781 123.932 20.3456 123.892 20.3456C123.707 20.3456 123.521 21.1008 123.468 21.2863C123.349 21.6441 123.481 21.8693 123.269 22.2668C123.19 22.4258 123.124 22.5716 123.097 22.7571C123.004 23.2606 122.832 23.6183 122.7 24.1748C122.633 24.4133 122.501 24.7446 122.501 24.9963C122.501 25.4203 122.156 25.5528 121.958 25.5528C121.706 25.5528 121.216 25.0626 121.216 24.6518C121.216 24.0821 121.573 23.1811 121.679 22.5716C121.746 22.1476 121.891 21.8826 122.011 21.6573C122.103 21.4983 122.209 21.3261 122.209 21.1273C122.236 20.5708 122.607 20.1203 122.845 19.6433C122.912 19.5241 123.309 18.8351 123.322 18.7291C123.349 18.5038 123.468 18.2653 123.76 18.2653C124.555 18.2653 124.952 19.9878 125.058 20.5576C125.111 20.8756 125.058 21.1538 125.177 21.1538C125.31 21.1538 125.429 20.6636 125.509 20.3588C125.654 19.7493 126.383 18.5303 126.794 17.9738C126.993 17.7353 127.191 17.5896 127.364 17.5896C127.721 17.5896 128.145 17.8413 128.331 18.3316C128.503 18.7821 128.755 19.6963 128.781 20.3191C128.795 20.8756 128.887 21.1803 128.98 21.3791C129.126 21.6706 128.954 22.1078 129.046 22.2801C129.152 22.5186 129.285 22.8498 129.285 23.1148C129.285 23.4063 129.046 23.6978 128.755 23.6978ZM132.251 23.1546C132.251 23.3533 131.946 24.3603 131.919 24.4531C131.8 24.9301 131.668 25.4071 131.694 25.5131C131.747 25.8311 131.495 25.9768 131.27 26.1226C131.204 26.1491 131.124 26.1888 131.005 26.1888C130.806 26.1888 130.714 26.0033 130.634 25.8708C130.515 25.8046 130.303 25.6191 130.303 25.3938C130.303 25.1553 130.528 25.0361 130.568 24.8108C130.621 24.5458 131.071 22.7968 131.283 22.0283C131.389 21.6441 131.668 20.8623 131.919 20.1203C132.184 19.3651 132.396 18.7291 132.396 18.5966C132.423 18.1196 132.396 17.3246 133.099 17.3246C133.814 17.3246 134.291 18.3316 134.569 18.8881C134.887 19.4976 135.484 20.8491 135.576 21.0213C135.629 21.1273 135.709 21.2466 136.12 21.2598C136.398 21.2731 137.524 21.1406 137.524 21.6043C137.524 21.9356 137.339 22.2536 136.822 22.1741C136.557 22.1211 136.093 22.0018 136.093 22.1343C136.093 22.2801 136.451 23.2738 136.53 23.4726C136.782 24.2013 136.345 24.1086 136.133 24.5061L136.093 24.5723C136.04 24.6783 135.947 24.7578 135.815 24.7578C135.47 24.7578 135.537 24.3206 135.338 24.2543C135.139 24.2013 134.848 24.1881 134.848 23.9098C134.848 23.6581 135.139 23.4858 135.086 23.2871C134.993 22.9956 134.861 22.5981 134.808 22.4656C134.781 22.4126 134.755 22.4258 134.636 22.4523C134.357 22.5451 133.867 22.7438 133.456 22.8763C133.059 22.9956 132.675 23.1943 132.251 23.1546ZM133.483 19.3518C133.443 19.2723 133.417 19.3121 133.417 19.3386C133.39 19.6168 132.873 21.3128 132.688 21.7368C132.648 21.8163 132.728 21.7898 132.767 21.7766C132.966 21.6971 134.013 21.4188 134.384 21.3658C134.066 20.7033 133.761 20.0408 133.483 19.3518Z" fill="white"/>
</g>
<g filter="url(#filter1_d_160_10972)">
<path d="M64.693 20.608C64.5473 21.1777 63.7788 21.5222 63.6595 21.827C63.6065 21.986 63.2488 22.3305 63.2488 22.41C63.2488 22.5425 63.262 22.6882 63.5535 22.9532C63.845 23.2182 64.1498 23.523 64.2425 23.523C64.6003 23.523 64.6533 24.0398 64.587 24.2518C64.5075 24.4505 64.4545 24.8348 64.1763 24.8348C63.7125 24.8348 63.3945 24.5433 63.0898 24.2518C62.8248 24 62.7055 24.0663 62.5465 23.7085C62.5465 23.6952 62.5863 23.6555 62.5598 23.6555C62.3743 23.6555 62.3743 23.6555 62.3478 23.7747C62.308 24 62.0828 24.4108 61.8443 24.53C61.7515 24.5698 61.6323 24.5963 61.4733 24.5963C61.2083 24.5963 60.771 24.5565 60.771 24.0265C60.771 23.8675 60.824 23.6952 60.718 23.576C60.4265 23.2447 60.7313 22.887 61.0228 22.7545C61.0758 22.7412 61.142 22.7147 61.195 22.6882C61.248 22.675 61.301 22.7147 61.301 22.6882C61.301 22.622 61.2878 22.5292 61.1023 22.41C60.8373 22.2377 60.4 21.8137 60.3868 21.5885C60.3735 21.456 60.082 21.244 60.082 21.0055C60.0025 20.8597 59.8833 20.7405 59.8833 20.555C59.8833 20.396 60.082 19.8527 60.4133 19.8527C60.6518 19.8527 61.1553 20.1177 61.1553 20.4092C61.1553 20.5285 61.354 20.661 61.354 20.873C61.354 20.8995 61.407 20.8862 61.4468 20.8995C61.778 21.0982 61.8045 21.2175 62.0563 21.4957C62.1093 21.562 62.1358 21.6282 62.1755 21.6282C62.1888 21.6282 62.149 21.5885 62.1623 21.562C62.3345 21.2837 62.5068 21.1247 62.732 20.8862C62.8645 20.7405 62.9705 20.555 63.1163 20.4225C63.1693 20.3695 63.368 20.237 63.3813 20.1707C63.421 19.8925 63.8583 19.3492 63.9908 19.3492C64.0305 19.3227 64.057 19.283 64.1233 19.2565C64.534 19.0975 64.905 19.5215 64.852 19.919L64.7593 20.237C64.746 20.3562 64.7328 20.4887 64.693 20.608Z" fill="white"/>
</g>
<g clip-path="url(#clip0_160_10972)">
<g filter="url(#filter2_d_160_10972)">
<path d="M26.8733 0.660156C26.8733 0.660156 27.4208 1.0395 27.1197 1.58438C27.1197 1.58438 27.8247 1.81198 27.9136 2.20512C27.9136 2.20512 27.284 1.99131 27.0581 2.51549C27.0581 2.51549 26.9554 3.05347 27.4824 2.94312C27.4824 2.94312 27.8452 2.58446 28.2285 2.97071C28.2285 2.97071 28.7076 2.46721 29.3235 3.08106C29.3235 3.08106 30.3776 2.41204 31.2468 3.28108C31.2468 3.28108 32.1844 2.81207 32.7799 3.63973C32.7799 3.63973 33.6423 3.35005 34.2719 4.30186C34.2719 4.30186 35.0727 4.13633 35.278 4.95019C35.278 4.95019 35.7571 4.83294 35.8735 5.43299C35.8735 5.43299 36.8248 5.25367 37.1328 5.34333C37.1328 5.34333 36.9412 5.53645 36.8727 5.86062C36.8727 5.86062 35.7161 5.72957 34.97 6.83312C34.97 6.83312 33.9297 5.4192 32.0065 4.95019C32.0065 4.95019 32.3555 5.86751 32.4924 6.35721H31.4658C31.4658 6.35721 31.1715 5.19849 29.392 4.31565L28.8924 4.81914C28.8924 4.81914 29.9874 5.83992 29.5836 6.3779C29.5836 6.3779 29.1798 6.74345 28.2969 6.1434C28.2969 6.1434 27.5304 5.68819 26.8596 5.68819V4.77776C26.8596 4.77776 27.3524 4.73638 27.3524 3.9639C27.3524 3.9639 27.4277 3.15693 26.8596 3.15693V0.660156H26.8733Z" fill="white"/>
<path d="M26.9143 0.660156C26.9143 0.660156 26.3668 1.0395 26.6679 1.58438C26.6679 1.58438 25.9629 1.81198 25.874 2.20512C25.874 2.20512 26.5036 1.99131 26.7295 2.51549C26.7295 2.51549 26.8322 3.05347 26.3052 2.94312C26.3052 2.94312 25.9424 2.58446 25.5591 2.97071C25.5591 2.97071 25.08 2.46721 24.4641 3.08106C24.4641 3.08106 23.41 2.41204 22.5408 3.28108C22.5408 3.28108 21.6032 2.81207 21.0077 3.63973C21.0077 3.63973 20.1454 3.35005 19.5157 4.30186C19.5157 4.30186 18.7149 4.13633 18.5096 4.95019C18.5096 4.95019 18.0305 4.83294 17.9141 5.43299C17.9141 5.43299 16.9628 5.25367 16.6479 5.34333C16.6479 5.34333 16.8464 5.53645 16.908 5.86062C16.908 5.86062 18.0647 5.72957 18.8107 6.83312C18.8107 6.83312 19.851 5.4192 21.7743 4.95019C21.7743 4.95019 21.4252 5.86751 21.2883 6.35721H22.3218C22.3218 6.35721 22.6161 5.19849 24.3956 4.31565L24.8952 4.81914C24.8952 4.81914 23.8002 5.83992 24.204 6.3779C24.204 6.3779 24.6078 6.74345 25.4907 6.1434C25.4907 6.1434 26.2572 5.68819 26.928 5.68819V4.77776C26.928 4.77776 26.4352 4.73638 26.4352 3.9639C26.4352 3.9639 26.3599 3.15693 26.928 3.15693V0.660156H26.9143Z" fill="white"/>
<path d="M15.8197 5.72266C15.8197 5.72266 16.333 6.90207 17.9278 6.66757C17.9278 6.66757 18.0783 7.25383 18.797 7.54351C18.797 7.54351 18.0167 8.37117 18.797 8.86086C18.797 8.86086 19.5088 9.07468 19.6525 8.57808C19.6525 8.57808 19.6525 8.06769 19.2555 8.01251L19.8168 7.58489L20.3917 8.01251C20.3917 8.01251 20.0084 8.0401 20.0974 8.57808C20.0974 8.57808 20.1658 9.11606 20.6312 9.11606C21.0898 9.11606 21.1651 8.70913 21.1651 8.57808C21.1651 8.44703 21.0966 7.8125 20.6175 7.71594L21.5689 7.01932L22.4723 7.71594C22.4723 7.71594 22.0411 7.93664 22.0411 8.57808C22.0411 8.57808 22.0754 9.11606 22.7529 9.11606C23.4305 9.11606 23.4305 8.57808 23.4305 8.57808C23.4305 8.57808 23.451 8.01251 22.9377 8.01251L23.9438 7.50212L24.8678 8.01251C24.8678 8.01251 24.4571 8.08149 24.4571 8.57808C24.4571 9.07468 24.8883 9.20572 25.1484 9.20572C25.4085 9.20572 25.8055 9.15744 25.8055 8.57808C25.8055 7.99872 25.3127 7.48143 24.6488 7.48143C24.6488 7.48143 25.4564 6.17097 26.9279 6.17097V9.66094H18.3316C18.3316 9.66094 18.3863 9.10916 17.8867 8.59877C17.3802 8.08838 16.9148 8.01941 16.9148 8.01941C16.9148 8.01941 15.4912 7.43315 15.8197 5.72266Z" fill="white"/>
<path d="M37.9744 5.72266C37.9744 5.72266 37.4611 6.90207 35.8664 6.66757C35.8664 6.66757 35.7158 7.25383 34.9972 7.54351C34.9972 7.54351 35.7774 8.37117 34.9972 8.86086C34.9972 8.86086 34.2854 9.07468 34.1416 8.57808C34.1416 8.57808 34.1416 8.06769 34.5386 8.01251L33.9774 7.58489L33.4025 8.01251C33.4025 8.01251 33.7857 8.0401 33.6968 8.57808C33.6968 8.57808 33.6283 9.11606 33.1629 9.11606C32.7043 9.11606 32.6291 8.70913 32.6291 8.57808C32.6291 8.44703 32.6975 7.8125 33.1766 7.71594L32.2252 7.01932L31.3218 7.71594C31.3218 7.71594 31.753 7.93664 31.753 8.57808C31.753 8.57808 31.7188 9.11606 31.0412 9.11606C30.3636 9.11606 30.3636 8.57808 30.3636 8.57808C30.3636 8.57808 30.3431 8.01251 30.8564 8.01251L29.8503 7.50212L28.9263 8.01251C28.9263 8.01251 29.337 8.08149 29.337 8.57808C29.337 9.07468 28.9058 9.20572 28.6457 9.20572C28.3856 9.20572 27.9887 9.15744 27.9887 8.57808C27.9887 7.99872 28.4814 7.48143 29.1453 7.48143C29.1453 7.48143 28.3377 6.17097 26.8662 6.17097V9.66094H35.442C35.442 9.66094 35.3873 9.10916 35.8869 8.59877C36.3934 8.08838 36.8588 8.01941 36.8588 8.01941C36.8588 8.01941 38.2961 7.43315 37.9744 5.72266Z" fill="white"/>
<path d="M35.4835 10.0405H18.3113V10.7716H35.4835V10.0405Z" fill="white"/>
<path d="M35.4835 11.1509H18.3113V12.5165H35.4835V11.1509Z" fill="white"/>
<path d="M20.1591 11.8402C20.1591 12.1092 19.9469 12.323 19.68 12.323C19.4131 12.323 19.2009 12.1092 19.2009 11.8402C19.2009 11.5712 19.4131 11.3574 19.68 11.3574C19.9401 11.3574 20.1591 11.5781 20.1591 11.8402Z" fill="#101010"/>
<path d="M23.6769 11.8402C23.6769 12.1092 23.4648 12.323 23.1978 12.323C22.9309 12.323 22.7188 12.1092 22.7188 11.8402C22.7188 11.5712 22.9309 11.3574 23.1978 11.3574C23.4648 11.3574 23.6769 11.5781 23.6769 11.8402Z" fill="#101010"/>
<path d="M27.2565 11.8402C27.2565 12.1092 27.0444 12.323 26.7774 12.323C26.5105 12.323 26.2983 12.1092 26.2983 11.8402C26.2983 11.5712 26.5105 11.3574 26.7774 11.3574C27.0444 11.3574 27.2565 11.5781 27.2565 11.8402Z" fill="#101010"/>
<path d="M30.7607 11.8402C30.7607 12.1092 30.5485 12.323 30.2816 12.323C30.0147 12.323 29.8025 12.1092 29.8025 11.8402C29.8025 11.5712 30.0147 11.3574 30.2816 11.3574C30.5485 11.3574 30.7607 11.5781 30.7607 11.8402Z" fill="#101010"/>
<path d="M34.3061 11.8402C34.3061 12.1092 34.0939 12.323 33.827 12.323C33.5601 12.323 33.3479 12.1092 33.3479 11.8402C33.3479 11.5712 33.5601 11.3574 33.827 11.3574C34.0871 11.3574 34.3061 11.5781 34.3061 11.8402Z" fill="#101010"/>
<path d="M8.0653 16.5514L8.62653 16.7721V25.4142L7.56567 26.235H9.09194L11.8707 23.9107V15.641L12.2471 14.8892C12.2471 14.8823 10.4403 16.6755 8.0653 16.5514Z" fill="white"/>
<path d="M13.5546 13.1577C13.5546 13.1577 12.3979 15.0751 11.2344 15.6545C11.2344 15.6545 14.7455 17.5581 17.052 15.5786C17.052 15.5786 14.6017 15.3096 13.5546 13.1577Z" fill="white"/>
<path d="M14.184 29.6558V15.7925H13.6502V28.8971C13.6502 28.8971 12.4046 28.4902 12.4046 29.5868C12.4046 29.5868 12.343 30.3386 13.3422 30.3386C13.3354 30.3524 14.184 30.2903 14.184 29.6558Z" fill="white"/>
<path d="M15.0876 26.359C15.0876 26.359 6.75814 28.3109 5.32085 22.3656C5.32085 22.3656 4.38319 16.772 9.78329 13.9097C9.78329 13.9097 1.45386 14.5994 1.45386 22.3656C1.45386 22.3656 1.54283 27.9937 7.12772 28.4627C7.12772 28.4627 11.8708 28.8075 15.0876 26.359Z" fill="white"/>
<path d="M18.1604 17.5098C18.1604 17.5098 17.695 18.4754 17.2501 18.9237V23.9448C17.2501 23.9448 18.9611 24.8897 19.6798 24.4138L18.4889 26.3726C18.4889 26.3726 17.695 25.4277 14.5603 25.007C14.5603 25.007 15.3063 24.538 15.3063 23.9931V19.0892L15.0257 18.7857C15.0189 18.7857 16.3124 18.9927 18.1604 17.5098Z" fill="white"/>
<path d="M18.3934 26.3726C18.3934 26.3726 18.8589 25.407 19.3037 24.9587V19.9376C19.3037 19.9376 17.5927 18.9927 16.874 19.4686L18.0649 17.5098C18.0649 17.5098 18.8589 18.4547 21.9935 18.8754C21.9935 18.8754 21.2475 19.3444 21.2475 19.8893V24.7932L21.5281 25.0966C21.5281 25.0966 20.2414 24.8897 18.3934 26.3726Z" fill="white"/>
<path d="M32.1433 17.5098C32.1433 17.5098 31.6779 18.4754 31.233 18.9237V23.9448C31.233 23.9448 32.9441 24.8897 33.6627 24.4138L32.4718 26.3726C32.4718 26.3726 31.6779 25.4277 28.5432 25.007C28.5432 25.007 29.2892 24.538 29.2892 23.9931V19.0892L29.0086 18.7857C29.0086 18.7857 30.2953 18.9927 32.1433 17.5098Z" fill="white"/>
<path d="M32.3827 26.3726C32.3827 26.3726 32.8481 25.407 33.293 24.9587V19.9376C33.293 19.9376 31.5819 18.9927 30.8633 19.4686L32.0542 17.5098C32.0542 17.5098 32.8481 18.4547 35.9828 18.8754C35.9828 18.8754 35.2367 19.3444 35.2367 19.8893V24.7932L35.5174 25.0966C35.5174 25.0966 34.2306 24.8897 32.3827 26.3726Z" fill="white"/>
<path d="M22.1785 18.7102C22.1785 18.7102 23.1161 18.9447 23.1161 19.5379V24.2763C23.1161 24.2763 22.9998 24.6073 22.4591 24.6073C22.4591 24.6073 23.6774 25.1246 24.2796 26.4489C24.2796 26.4489 24.8682 25.2212 26.0934 24.6211C26.0934 24.6211 25.3884 24.6004 25.3884 24.2763V18.455C25.3884 18.455 25.0736 17.855 23.8827 17.3584L22.1785 18.7102Z" fill="white"/>
<path d="M27.325 17.2134C27.325 17.2134 26.798 18.179 25.0322 18.51C25.0322 18.51 25.4429 19.455 27.2634 19.455C29.0909 19.455 29.0909 18.4066 29.0909 18.4066C29.0909 18.4066 28.03 18.2204 27.325 17.2134Z" fill="white"/>
<path d="M36.1335 18.8548C36.1335 18.8548 37.0712 19.0893 37.0712 19.6824V24.4208C37.0712 24.4208 36.9549 24.7518 36.4142 24.7518C36.4142 24.7518 37.6324 25.2691 38.2347 26.5934C38.2347 26.5934 38.8233 25.3657 40.0484 24.7656C40.0484 24.7656 39.3435 24.7449 39.3435 24.4208V18.5996C39.3435 18.5996 39.0287 17.9995 37.8378 17.5029L36.1335 18.8548Z" fill="white"/>
<path d="M39.2476 18.4476C39.2476 18.4476 40.7944 17.9579 41.5335 17.0889C41.5335 17.0889 42.1837 18.0683 43.5594 18.5373C43.5594 18.5373 43.2651 18.5304 43.2651 19.2132V24.4206C43.2651 24.4206 43.2241 24.7654 43.8332 24.7654C43.8332 24.7654 42.3822 25.7517 42.3822 26.5932C42.3822 26.5932 41.9989 24.7654 40.6712 24.7654C40.6712 24.7654 41.2187 24.6964 41.2187 24.4206V19.6822C41.2187 19.6822 40.8286 18.6614 40.1168 18.6614L39.2407 19.4408V18.4476H39.2476Z" fill="white"/>
<path d="M47.8918 17.1167C47.8918 17.1167 47.4264 18.0823 46.9815 18.5306V23.5517C46.9815 23.5517 48.6926 24.4967 49.4112 24.0208L48.2203 25.9796C48.2203 25.9796 47.4264 25.0346 44.2917 24.6139C44.2917 24.6139 45.0378 24.1449 45.0378 23.6V18.6961L44.7572 18.3927C44.7572 18.3927 46.0439 18.5996 47.8918 17.1167Z" fill="white"/>
<path d="M50.9308 18.1239V23.9244C50.9308 23.9244 51.1635 24.559 52.3339 24.559L50.5475 26.3591L48.6174 24.4141V19.0619C48.6174 19.0619 47.2418 18.7309 46.79 18.2757L47.9672 17.0342C47.9672 17.0411 49.3156 18.1239 50.9308 18.1239Z" fill="white"/>
</g>
</g>
<defs>
<filter id="filter0_d_160_10972" x="69.7847" y="12.9136" width="71.7393" height="17.2754" filterUnits="userSpaceOnUse" color-interpolation-filters="sRGB">
<feFlood flood-opacity="0" result="BackgroundImageFix"/>
<feColorMatrix in="SourceAlpha" type="matrix" values="0 0 0 0 0 0 0 0 0 0 0 0 0 0 0 0 0 0 127 0" result="hardAlpha"/>
<feOffset/>
<feGaussianBlur stdDeviation="2"/>
<feComposite in2="hardAlpha" operator="out"/>
<feColorMatrix type="matrix" values="0 0 0 0 1 0 0 0 0 1 0 0 0 0 1 0 0 0 0.25 0"/>
<feBlend mode="normal" in2="BackgroundImageFix" result="effect1_dropShadow_160_10972"/>
<feBlend mode="normal" in="SourceGraphic" in2="effect1_dropShadow_160_10972" result="shape"/>
</filter>
<filter id="filter1_d_160_10972" x="55.8833" y="15.0977" width="13.0217" height="13.7373" filterUnits="userSpaceOnUse" color-interpolation-filters="sRGB">
<feFlood flood-opacity="0" result="BackgroundImageFix"/>
<feColorMatrix in="SourceAlpha" type="matrix" values="0 0 0 0 0 0 0 0 0 0 0 0 0 0 0 0 0 0 127 0" result="hardAlpha"/>
<feOffset/>
<feGaussianBlur stdDeviation="2"/>
<feComposite in2="hardAlpha" operator="out"/>
<feColorMatrix type="matrix" values="0 0 0 0 1 0 0 0 0 1 0 0 0 0 1 0 0 0 0.25 0"/>
<feBlend mode="normal" in2="BackgroundImageFix" result="effect1_dropShadow_160_10972"/>
<feBlend mode="normal" in="SourceGraphic" in2="effect1_dropShadow_160_10972" result="shape"/>
</filter>
<filter id="filter2_d_160_10972" x="-2.54614" y="-3.33984" width="58.8801" height="37.6802" filterUnits="userSpaceOnUse" color-interpolation-filters="sRGB">
<feFlood flood-opacity="0" result="BackgroundImageFix"/>
<feColorMatrix in="SourceAlpha" type="matrix" values="0 0 0 0 0 0 0 0 0 0 0 0 0 0 0 0 0 0 127 0" result="hardAlpha"/>
<feOffset/>
<feGaussianBlur stdDeviation="2"/>
<feComposite in2="hardAlpha" operator="out"/>
<feColorMatrix type="matrix" values="0 0 0 0 1 0 0 0 0 1 0 0 0 0 1 0 0 0 0.25 0"/>
<feBlend mode="normal" in2="BackgroundImageFix" result="effect1_dropShadow_160_10972"/>
<feBlend mode="normal" in="SourceGraphic" in2="effect1_dropShadow_160_10972" result="shape"/>
</filter>
<clipPath id="clip0_160_10972">
<rect width="53" height="31" fill="white" transform="translate(0.393799)"/>
</clipPath>
</defs>
</svg>
