<svg width="54" height="31" viewBox="0 0 54 31" fill="none" xmlns="http://www.w3.org/2000/svg">
<g id="Corona" clip-path="url(#clip0_160_10975)">
<g id="Group" filter="url(#filter0_d_160_10975)">
<path id="Vector" d="M26.8733 0.660156C26.8733 0.660156 27.4208 1.0395 27.1197 1.58438C27.1197 1.58438 27.8247 1.81198 27.9136 2.20512C27.9136 2.20512 27.284 1.99131 27.0581 2.51549C27.0581 2.51549 26.9554 3.05347 27.4824 2.94312C27.4824 2.94312 27.8452 2.58446 28.2285 2.97071C28.2285 2.97071 28.7076 2.46721 29.3235 3.08106C29.3235 3.08106 30.3776 2.41204 31.2468 3.28108C31.2468 3.28108 32.1844 2.81207 32.7799 3.63973C32.7799 3.63973 33.6423 3.35005 34.2719 4.30186C34.2719 4.30186 35.0727 4.13633 35.278 4.95019C35.278 4.95019 35.7571 4.83294 35.8735 5.43299C35.8735 5.43299 36.8248 5.25367 37.1328 5.34333C37.1328 5.34333 36.9412 5.53645 36.8727 5.86062C36.8727 5.86062 35.7161 5.72957 34.97 6.83312C34.97 6.83312 33.9297 5.4192 32.0065 4.95019C32.0065 4.95019 32.3555 5.86751 32.4924 6.35721H31.4658C31.4658 6.35721 31.1715 5.19849 29.392 4.31565L28.8924 4.81914C28.8924 4.81914 29.9874 5.83992 29.5836 6.3779C29.5836 6.3779 29.1798 6.74345 28.2969 6.1434C28.2969 6.1434 27.5304 5.68819 26.8596 5.68819V4.77776C26.8596 4.77776 27.3524 4.73638 27.3524 3.9639C27.3524 3.9639 27.4277 3.15693 26.8596 3.15693V0.660156H26.8733Z" fill="white"/>
<path id="Vector_2" d="M26.9143 0.660156C26.9143 0.660156 26.3668 1.0395 26.6679 1.58438C26.6679 1.58438 25.9629 1.81198 25.874 2.20512C25.874 2.20512 26.5036 1.99131 26.7295 2.51549C26.7295 2.51549 26.8322 3.05347 26.3052 2.94312C26.3052 2.94312 25.9424 2.58446 25.5591 2.97071C25.5591 2.97071 25.08 2.46721 24.4641 3.08106C24.4641 3.08106 23.41 2.41204 22.5408 3.28108C22.5408 3.28108 21.6032 2.81207 21.0077 3.63973C21.0077 3.63973 20.1454 3.35005 19.5157 4.30186C19.5157 4.30186 18.7149 4.13633 18.5096 4.95019C18.5096 4.95019 18.0305 4.83294 17.9141 5.43299C17.9141 5.43299 16.9628 5.25367 16.6479 5.34333C16.6479 5.34333 16.8464 5.53645 16.908 5.86062C16.908 5.86062 18.0647 5.72957 18.8107 6.83312C18.8107 6.83312 19.851 5.4192 21.7743 4.95019C21.7743 4.95019 21.4252 5.86751 21.2883 6.35721H22.3218C22.3218 6.35721 22.6161 5.19849 24.3956 4.31565L24.8952 4.81914C24.8952 4.81914 23.8002 5.83992 24.204 6.3779C24.204 6.3779 24.6078 6.74345 25.4907 6.1434C25.4907 6.1434 26.2572 5.68819 26.928 5.68819V4.77776C26.928 4.77776 26.4352 4.73638 26.4352 3.9639C26.4352 3.9639 26.3599 3.15693 26.928 3.15693V0.660156H26.9143Z" fill="white"/>
<path id="Vector_3" d="M15.8197 5.72266C15.8197 5.72266 16.333 6.90207 17.9278 6.66757C17.9278 6.66757 18.0783 7.25383 18.797 7.54351C18.797 7.54351 18.0167 8.37117 18.797 8.86086C18.797 8.86086 19.5088 9.07468 19.6525 8.57808C19.6525 8.57808 19.6525 8.06769 19.2555 8.01251L19.8168 7.58489L20.3917 8.01251C20.3917 8.01251 20.0084 8.0401 20.0974 8.57808C20.0974 8.57808 20.1658 9.11606 20.6312 9.11606C21.0898 9.11606 21.1651 8.70913 21.1651 8.57808C21.1651 8.44703 21.0966 7.8125 20.6175 7.71594L21.5689 7.01932L22.4723 7.71594C22.4723 7.71594 22.0411 7.93664 22.0411 8.57808C22.0411 8.57808 22.0754 9.11606 22.7529 9.11606C23.4305 9.11606 23.4305 8.57808 23.4305 8.57808C23.4305 8.57808 23.451 8.01251 22.9377 8.01251L23.9438 7.50212L24.8678 8.01251C24.8678 8.01251 24.4571 8.08149 24.4571 8.57808C24.4571 9.07468 24.8883 9.20572 25.1484 9.20572C25.4085 9.20572 25.8055 9.15744 25.8055 8.57808C25.8055 7.99872 25.3127 7.48143 24.6488 7.48143C24.6488 7.48143 25.4564 6.17097 26.9279 6.17097V9.66094H18.3316C18.3316 9.66094 18.3863 9.10916 17.8867 8.59877C17.3802 8.08838 16.9148 8.01941 16.9148 8.01941C16.9148 8.01941 15.4912 7.43315 15.8197 5.72266Z" fill="white"/>
<path id="Vector_4" d="M37.9744 5.72266C37.9744 5.72266 37.4611 6.90207 35.8664 6.66757C35.8664 6.66757 35.7158 7.25383 34.9972 7.54351C34.9972 7.54351 35.7774 8.37117 34.9972 8.86086C34.9972 8.86086 34.2854 9.07468 34.1416 8.57808C34.1416 8.57808 34.1416 8.06769 34.5386 8.01251L33.9774 7.58489L33.4025 8.01251C33.4025 8.01251 33.7857 8.0401 33.6968 8.57808C33.6968 8.57808 33.6283 9.11606 33.1629 9.11606C32.7043 9.11606 32.6291 8.70913 32.6291 8.57808C32.6291 8.44703 32.6975 7.8125 33.1766 7.71594L32.2252 7.01932L31.3218 7.71594C31.3218 7.71594 31.753 7.93664 31.753 8.57808C31.753 8.57808 31.7188 9.11606 31.0412 9.11606C30.3636 9.11606 30.3636 8.57808 30.3636 8.57808C30.3636 8.57808 30.3431 8.01251 30.8564 8.01251L29.8503 7.50212L28.9263 8.01251C28.9263 8.01251 29.337 8.08149 29.337 8.57808C29.337 9.07468 28.9058 9.20572 28.6457 9.20572C28.3856 9.20572 27.9887 9.15744 27.9887 8.57808C27.9887 7.99872 28.4814 7.48143 29.1453 7.48143C29.1453 7.48143 28.3377 6.17097 26.8662 6.17097V9.66094H35.442C35.442 9.66094 35.3873 9.10916 35.8869 8.59877C36.3934 8.08838 36.8588 8.01941 36.8588 8.01941C36.8588 8.01941 38.2961 7.43315 37.9744 5.72266Z" fill="white"/>
<path id="Vector_5" d="M35.4835 10.0405H18.3113V10.7716H35.4835V10.0405Z" fill="white"/>
<path id="Vector_6" d="M35.4835 11.1509H18.3113V12.5165H35.4835V11.1509Z" fill="white"/>
<path id="Vector_7" d="M20.1591 11.8402C20.1591 12.1092 19.9469 12.323 19.68 12.323C19.4131 12.323 19.2009 12.1092 19.2009 11.8402C19.2009 11.5712 19.4131 11.3574 19.68 11.3574C19.9401 11.3574 20.1591 11.5781 20.1591 11.8402Z" fill="#101010"/>
<path id="Vector_8" d="M23.6769 11.8402C23.6769 12.1092 23.4648 12.323 23.1978 12.323C22.9309 12.323 22.7188 12.1092 22.7188 11.8402C22.7188 11.5712 22.9309 11.3574 23.1978 11.3574C23.4648 11.3574 23.6769 11.5781 23.6769 11.8402Z" fill="#101010"/>
<path id="Vector_9" d="M27.2565 11.8402C27.2565 12.1092 27.0444 12.323 26.7774 12.323C26.5105 12.323 26.2983 12.1092 26.2983 11.8402C26.2983 11.5712 26.5105 11.3574 26.7774 11.3574C27.0444 11.3574 27.2565 11.5781 27.2565 11.8402Z" fill="#101010"/>
<path id="Vector_10" d="M30.7607 11.8402C30.7607 12.1092 30.5485 12.323 30.2816 12.323C30.0147 12.323 29.8025 12.1092 29.8025 11.8402C29.8025 11.5712 30.0147 11.3574 30.2816 11.3574C30.5485 11.3574 30.7607 11.5781 30.7607 11.8402Z" fill="#101010"/>
<path id="Vector_11" d="M34.3061 11.8402C34.3061 12.1092 34.0939 12.323 33.827 12.323C33.5601 12.323 33.3479 12.1092 33.3479 11.8402C33.3479 11.5712 33.5601 11.3574 33.827 11.3574C34.0871 11.3574 34.3061 11.5781 34.3061 11.8402Z" fill="#101010"/>
<path id="Vector_12" d="M8.0653 16.5514L8.62653 16.7721V25.4142L7.56567 26.235H9.09194L11.8707 23.9107V15.641L12.2471 14.8892C12.2471 14.8823 10.4403 16.6755 8.0653 16.5514Z" fill="white"/>
<path id="Vector_13" d="M13.5546 13.1577C13.5546 13.1577 12.3979 15.0751 11.2344 15.6545C11.2344 15.6545 14.7455 17.5581 17.052 15.5786C17.052 15.5786 14.6017 15.3096 13.5546 13.1577Z" fill="white"/>
<path id="Vector_14" d="M14.184 29.6558V15.7925H13.6502V28.8971C13.6502 28.8971 12.4046 28.4902 12.4046 29.5868C12.4046 29.5868 12.343 30.3386 13.3422 30.3386C13.3354 30.3524 14.184 30.2903 14.184 29.6558Z" fill="white"/>
<path id="Vector_15" d="M15.0876 26.359C15.0876 26.359 6.75814 28.3109 5.32085 22.3656C5.32085 22.3656 4.38319 16.772 9.78329 13.9097C9.78329 13.9097 1.45386 14.5994 1.45386 22.3656C1.45386 22.3656 1.54283 27.9937 7.12772 28.4627C7.12772 28.4627 11.8708 28.8075 15.0876 26.359Z" fill="white"/>
<path id="Vector_16" d="M18.1604 17.5098C18.1604 17.5098 17.695 18.4754 17.2501 18.9237V23.9448C17.2501 23.9448 18.9611 24.8897 19.6798 24.4138L18.4889 26.3726C18.4889 26.3726 17.695 25.4277 14.5603 25.007C14.5603 25.007 15.3063 24.538 15.3063 23.9931V19.0892L15.0257 18.7857C15.0189 18.7857 16.3124 18.9927 18.1604 17.5098Z" fill="white"/>
<path id="Vector_17" d="M18.3934 26.3726C18.3934 26.3726 18.8589 25.407 19.3037 24.9587V19.9376C19.3037 19.9376 17.5927 18.9927 16.874 19.4686L18.0649 17.5098C18.0649 17.5098 18.8589 18.4547 21.9935 18.8754C21.9935 18.8754 21.2475 19.3444 21.2475 19.8893V24.7932L21.5281 25.0966C21.5281 25.0966 20.2414 24.8897 18.3934 26.3726Z" fill="white"/>
<path id="Vector_18" d="M32.1433 17.5098C32.1433 17.5098 31.6779 18.4754 31.233 18.9237V23.9448C31.233 23.9448 32.9441 24.8897 33.6627 24.4138L32.4718 26.3726C32.4718 26.3726 31.6779 25.4277 28.5432 25.007C28.5432 25.007 29.2892 24.538 29.2892 23.9931V19.0892L29.0086 18.7857C29.0086 18.7857 30.2953 18.9927 32.1433 17.5098Z" fill="white"/>
<path id="Vector_19" d="M32.3827 26.3726C32.3827 26.3726 32.8481 25.407 33.293 24.9587V19.9376C33.293 19.9376 31.5819 18.9927 30.8633 19.4686L32.0542 17.5098C32.0542 17.5098 32.8481 18.4547 35.9828 18.8754C35.9828 18.8754 35.2367 19.3444 35.2367 19.8893V24.7932L35.5174 25.0966C35.5174 25.0966 34.2306 24.8897 32.3827 26.3726Z" fill="white"/>
<path id="Vector_20" d="M22.1785 18.7102C22.1785 18.7102 23.1161 18.9447 23.1161 19.5379V24.2763C23.1161 24.2763 22.9998 24.6073 22.4591 24.6073C22.4591 24.6073 23.6774 25.1246 24.2796 26.4489C24.2796 26.4489 24.8682 25.2212 26.0934 24.6211C26.0934 24.6211 25.3884 24.6004 25.3884 24.2763V18.455C25.3884 18.455 25.0736 17.855 23.8827 17.3584L22.1785 18.7102Z" fill="white"/>
<path id="Vector_21" d="M27.325 17.2134C27.325 17.2134 26.798 18.179 25.0322 18.51C25.0322 18.51 25.4429 19.455 27.2634 19.455C29.0909 19.455 29.0909 18.4066 29.0909 18.4066C29.0909 18.4066 28.03 18.2204 27.325 17.2134Z" fill="white"/>
<path id="Vector_22" d="M36.1335 18.8548C36.1335 18.8548 37.0712 19.0893 37.0712 19.6824V24.4208C37.0712 24.4208 36.9549 24.7518 36.4142 24.7518C36.4142 24.7518 37.6324 25.2691 38.2347 26.5934C38.2347 26.5934 38.8233 25.3657 40.0484 24.7656C40.0484 24.7656 39.3435 24.7449 39.3435 24.4208V18.5996C39.3435 18.5996 39.0287 17.9995 37.8378 17.5029L36.1335 18.8548Z" fill="white"/>
<path id="Vector_23" d="M39.2476 18.4476C39.2476 18.4476 40.7944 17.9579 41.5335 17.0889C41.5335 17.0889 42.1837 18.0683 43.5594 18.5373C43.5594 18.5373 43.2651 18.5304 43.2651 19.2132V24.4206C43.2651 24.4206 43.2241 24.7654 43.8332 24.7654C43.8332 24.7654 42.3822 25.7517 42.3822 26.5932C42.3822 26.5932 41.9989 24.7654 40.6712 24.7654C40.6712 24.7654 41.2187 24.6964 41.2187 24.4206V19.6822C41.2187 19.6822 40.8286 18.6614 40.1168 18.6614L39.2407 19.4408V18.4476H39.2476Z" fill="white"/>
<path id="Vector_24" d="M47.8918 17.1167C47.8918 17.1167 47.4264 18.0823 46.9815 18.5306V23.5517C46.9815 23.5517 48.6926 24.4967 49.4112 24.0208L48.2203 25.9796C48.2203 25.9796 47.4264 25.0346 44.2917 24.6139C44.2917 24.6139 45.0378 24.1449 45.0378 23.6V18.6961L44.7572 18.3927C44.7572 18.3927 46.0439 18.5996 47.8918 17.1167Z" fill="white"/>
<path id="Vector_25" d="M50.9308 18.1239V23.9244C50.9308 23.9244 51.1635 24.559 52.3339 24.559L50.5475 26.3591L48.6174 24.4141V19.0619C48.6174 19.0619 47.2418 18.7309 46.79 18.2757L47.9672 17.0342C47.9672 17.0411 49.3156 18.1239 50.9308 18.1239Z" fill="white"/>
</g>
</g>
<defs>
<filter id="filter0_d_160_10975" x="-2.54614" y="-3.33984" width="58.8801" height="37.6802" filterUnits="userSpaceOnUse" color-interpolation-filters="sRGB">
<feFlood flood-opacity="0" result="BackgroundImageFix"/>
<feColorMatrix in="SourceAlpha" type="matrix" values="0 0 0 0 0 0 0 0 0 0 0 0 0 0 0 0 0 0 127 0" result="hardAlpha"/>
<feOffset/>
<feGaussianBlur stdDeviation="2"/>
<feComposite in2="hardAlpha" operator="out"/>
<feColorMatrix type="matrix" values="0 0 0 0 1 0 0 0 0 1 0 0 0 0 1 0 0 0 0.25 0"/>
<feBlend mode="normal" in2="BackgroundImageFix" result="effect1_dropShadow_160_10975"/>
<feBlend mode="normal" in="SourceGraphic" in2="effect1_dropShadow_160_10975" result="shape"/>
</filter>
<clipPath id="clip0_160_10975">
<rect width="53" height="31" fill="white" transform="translate(0.393799)"/>
</clipPath>
</defs>
</svg>
