<svg width="100" height="101" viewBox="0 0 100 101" fill="none" xmlns="http://www.w3.org/2000/svg">
<g clip-path="url(#clip0_160_16755)">
<path d="M68.1061 88.5823H52.263V92.5953H47.9154V96.5149H43.9302V100.468H32.1364V92.6914H39.8503V88.7676H47.8736V84.6961L47.8206 84.7449H52.0441V80.7319H47.8206L47.8736 80.7807V68.5369H56.1562L56.106 68.4839V80.6162H63.9606V76.3901H60.119V68.4839L60.0688 68.5341H64.1167V52.6312C65.5427 52.6312 66.7916 52.6312 68.0406 52.6312C68.0406 56.5564 68.0406 60.483 68.0406 64.4278H71.8599V52.6828H67.989V48.2755H64.0819V44.3517L64.0317 44.4018H68.0448V40.3888L67.996 40.4418H71.924V32.6025H84.2057V40.4376L84.2586 40.3888C82.9414 40.3819 81.6242 40.3763 80.3069 40.3693V36.5946H76.0374V40.315C77.5358 40.315 78.9451 40.315 80.3529 40.3178C80.3515 41.6499 80.3515 42.9792 80.3515 44.4032H84.2586L84.2057 44.3545V48.2894H80.3738V52.6159H84.1569V56.6568H88.2173L88.1657 56.6052V60.6168C85.4769 60.6168 82.8633 60.6168 80.2498 60.6168C80.2498 59.3279 80.2498 58.0376 80.2498 56.7432H76.0764V60.5653H80.3013V64.5128H84.1792V72.3966H88.1657V76.3427H92.0882V72.5819H99.9958V80.6929H96.1389V84.632H88.2522V80.8587H84.2684C84.2684 83.4142 84.2684 86.024 84.267 88.6367C84.2656 88.6394 84.3172 88.5795 84.3172 88.5795H80.3683V92.5159H75.9719V84.8118H68.0559C68.0559 86.0672 68.0559 87.3519 68.0545 88.638C68.0531 88.6408 68.1047 88.5809 68.1047 88.5809L68.1061 88.5823ZM68.1493 68.5912V80.6149H80.1759V68.5912H68.1493Z" fill="white"/>
<path d="M99.9679 28.283H72.246V0.5H99.9679V28.283ZM96.0427 24.3132V4.4893H76.2883V24.3118H96.0427V24.3132Z" fill="#FFC691"/>
<path d="M27.715 100.5H0.0250854V72.7298C0.56592 72.6866 1.03288 72.6183 1.50123 72.6183C9.72108 72.6114 17.9423 72.6169 26.1622 72.6086C27.0975 72.6086 27.9213 72.5055 27.9129 73.9267C27.8627 82.5644 27.8822 91.2035 27.8711 99.8412C27.8711 100.013 27.793 100.183 27.715 100.5ZM23.8497 96.5569V76.7526H4.02837V96.5569H23.8497Z" fill="#FFC691"/>
<path d="M27.7833 0.554199V28.2675H0V0.554199H27.7833ZM4.02838 4.46129V24.2141H23.8817V4.46129H4.02838Z" fill="#FFC691"/>
<path d="M35.9864 16.3027V12.3859H32.1072V4.42817H35.978L35.9265 4.37661V8.24329H43.8215V4.47972H47.8039V0.532227H52.0832V4.42538H60.1191L60.0703 4.37243V8.38542L60.1204 8.33526H56.1074V12.3482L56.1562 12.2953H47.9071V16.2539H35.9348L35.9864 16.3055V16.3027Z" fill="white"/>
<path d="M7.82954 56.6524C9.16629 56.6524 10.5044 56.6524 11.8412 56.6524L11.7924 56.5995V60.462H15.8055V56.5995L15.7553 56.6496C17.0934 56.6329 18.433 56.6162 19.7711 56.5995V60.6111H24.0922L24.0392 60.5623C24.0392 61.8986 24.0365 63.2334 24.0351 64.5697L24.0866 64.5181H19.792V68.4071H15.8236V64.6784H7.89924V68.4085H0.0153198V64.6227H3.91964V60.5609L3.86667 60.6097H7.87972V56.5967L7.83094 56.6496L7.82954 56.6524Z" fill="white"/>
<path d="M60.1246 24.5875V20.2833H52.2644V16.3664H56.1562C56.1562 14.8853 56.1562 13.5894 56.1562 12.2935L56.1074 12.3465H60.1204V8.3335L60.0703 8.38366C61.4084 8.38366 62.7452 8.38366 64.0833 8.38366L64.0303 8.33489V20.183H67.9138V28.4374H64.1391V24.5359H60.073L60.1246 24.5875Z" fill="white"/>
<path d="M56.1562 64.5225H47.9698V48.3689C50.6935 48.3689 53.4241 48.3689 56.1562 48.3689L56.1074 48.3159V52.733H52.316V56.6875H59.988V60.6447H56.1074V64.5755L56.1576 64.5225H56.1562Z" fill="white"/>
<path d="M35.9348 16.2524V20.1804H39.8921V24.5919L39.9451 24.5417H36.0812V28.5547H39.9451L39.8949 28.5045V32.5175L39.9437 32.4646C37.3078 32.4855 34.6734 32.5078 32.0361 32.5259C32.0333 32.5245 32.0933 32.576 32.0933 32.576V16.3025C33.4035 16.3025 34.6943 16.3025 35.9864 16.3025L35.9348 16.251V16.2524Z" fill="white"/>
<path d="M60.0758 96.636H64.008V92.6621H68.1019C68.1019 91.1795 68.1019 89.8822 68.1033 88.5836C68.1047 88.5808 68.0532 88.6407 68.0546 88.6393C69.3021 88.6365 70.5468 88.6365 71.8864 88.6365V100.426H60.1246V96.5845L60.0731 96.636H60.0758Z" fill="white"/>
<path d="M88.2187 56.6567V48.4106H96.0845V44.4771H99.9443V52.5908H92.1286V56.647L92.1802 56.5954C90.8421 56.5982 89.5053 56.6024 88.1672 56.6052L88.2187 56.6567Z" fill="white"/>
<path d="M28.0021 40.3915C28.0021 41.7278 28.0021 43.0655 28.0021 44.4017L28.0551 44.353H24.042V48.3659L24.0922 48.3158H19.7181L19.7711 48.3646V40.4877H15.811V36.4315L15.7595 36.4831C18.5361 36.4831 21.3128 36.4831 24.0894 36.4817L24.0406 36.4287V40.4417H28.0537L28.0007 40.3929L28.0021 40.3915Z" fill="white"/>
<path d="M92.1412 92.6745H96.0803V88.7827H99.9428V100.437H92.1927V92.6243L92.1412 92.6759V92.6745Z" fill="white"/>
<path d="M92.1914 92.6231H88.2369V100.471H80.4087V96.6416H84.313C84.313 93.8283 84.313 91.2074 84.3144 88.5836C84.3158 88.5808 84.2642 88.6407 84.2656 88.6393C86.8234 88.6365 89.3799 88.6365 92.1384 88.6365C92.1384 90.0912 92.1384 91.3815 92.1384 92.6732L92.19 92.6217L92.1914 92.6231Z" fill="white"/>
<path d="M47.8694 40.389H43.9303V44.2766H36.0422V40.4866H39.9437C39.9437 37.6872 39.9437 35.076 39.9437 32.4634L39.8949 32.5163H43.9456V36.4792H47.8708L47.8207 36.429V40.442L47.8694 40.389Z" fill="white"/>
<path d="M39.8921 68.4867V76.305H32.1127V64.5754H35.9808L35.932 64.5225V68.5354H39.9451L39.8921 68.4867Z" fill="white"/>
<path d="M52.1445 36.4817H60.0243V40.4431H64.0819L64.0331 40.3901V44.4031L64.0833 44.353H60.0326V48.3158H56.1074L56.1562 48.3687C56.1562 45.7979 56.1562 43.2271 56.1562 40.3887H52.1445L52.1933 40.4417V36.4287L52.1445 36.4817Z" fill="white"/>
<path d="M40.019 60.6725C39.9604 59.3836 39.9019 58.0947 39.8336 56.5982H31.9678L32.0166 56.6512V52.6382L31.9678 52.6911H43.7379V60.6237C42.5266 60.6237 41.2442 60.6238 39.9604 60.6224C39.9576 60.621 40.0176 60.6725 40.0176 60.6725H40.019Z" fill="white"/>
<path d="M47.8206 24.5959H52.1445C52.1445 28.6117 52.1445 32.5466 52.1445 36.483L52.1933 36.43H47.8192L47.8694 36.4802V24.543L47.8206 24.5959Z" fill="white"/>
<path d="M28.0021 44.4032H31.9692C31.9692 47.2179 31.9692 49.9545 31.9692 52.6911L32.0179 52.6382C29.3584 52.6549 26.6988 52.6716 24.0392 52.6869C24.0574 51.2294 24.0741 49.772 24.0922 48.3159L24.042 48.366H28.0551V44.353L28.0021 44.4018V44.4032Z" fill="white"/>
<path d="M7.93829 36.3537H3.98936V40.29H0.0362549V32.5859H7.8909C7.8909 33.84 7.8909 35.1247 7.8895 36.4122C7.88811 36.415 7.93969 36.3551 7.93969 36.3551L7.93829 36.3537Z" fill="white"/>
<path d="M24.0908 36.4817V32.5718C26.7922 32.5718 29.4406 32.5718 32.0905 32.5732C32.0932 32.5746 32.0333 32.523 32.0347 32.5244C32.0375 35.0813 32.0375 37.6368 32.0375 40.3902C30.5836 40.3902 29.2929 40.3902 28.0021 40.3902L28.0551 40.4389V36.426H24.0421L24.0908 36.4789V36.4817Z" fill="white"/>
<path d="M92.261 40.5002V36.5513H88.3246V32.5996H96.0315V40.4514C94.777 40.4514 93.4918 40.4514 92.2053 40.45C92.2025 40.4486 92.2624 40.5002 92.2624 40.5002H92.261Z" fill="white"/>
<path d="M31.9692 56.5966V60.5622C29.2747 60.5622 26.657 60.5622 24.0392 60.5622L24.0922 60.611C24.0741 59.2733 24.0574 57.9371 24.0392 56.5994C26.6988 56.6161 29.3584 56.6328 32.0179 56.6482L31.9692 56.5952V56.5966Z" fill="white"/>
<path d="M47.8736 84.6962H40.0482V80.7822H47.8736L47.8206 80.7334V84.7464L47.8736 84.6976V84.6962Z" fill="white"/>
<path d="M84.2071 40.4403C86.8904 40.4584 89.5736 40.4779 92.2583 40.4988C92.2611 40.5002 92.2011 40.4487 92.2025 40.4501C92.2053 41.693 92.2053 42.9331 92.2053 44.3544C89.4203 44.3544 86.8137 44.3544 84.2071 44.3544L84.2601 44.4031V40.3901L84.2071 40.4389V40.4403Z" fill="white"/>
<path d="M15.8083 52.687V48.3647C17.1799 48.3647 18.4748 48.3647 19.7711 48.3647L19.7182 48.3159C19.7349 49.7748 19.7516 51.2323 19.767 52.6912L15.7539 52.6382L15.8069 52.687H15.8083Z" fill="white"/>
<path d="M43.9094 24.5916V20.3696H47.8206C47.8206 21.7728 47.8206 23.1843 47.8206 24.5944L47.8694 24.5415C46.5313 24.5415 45.1945 24.5415 43.8564 24.5415L43.9094 24.5916Z" fill="white"/>
<path d="M52.1445 40.3887V44.254H47.8694C47.8694 42.9706 47.8694 41.6804 47.8694 40.3887L47.8206 40.4416H52.1947L52.1459 40.3887H52.1445Z" fill="white"/>
<path d="M11.7171 36.3705V40.3263H7.93548C7.93548 39.0277 7.93548 37.6928 7.93688 36.3565C7.93827 36.3538 7.8867 36.4137 7.88809 36.4123C9.18442 36.4123 10.478 36.4165 11.7743 36.4206C11.7771 36.422 11.7171 36.3705 11.7171 36.3705Z" fill="white"/>
<path d="M3.91827 60.5624H0.0529785V56.6526H3.91548L3.8667 56.5996C3.8667 57.9373 3.8667 59.2749 3.8667 60.6126L3.91967 60.5638L3.91827 60.5624Z" fill="white"/>
<path d="M39.8921 24.5917C41.2316 24.5917 42.5712 24.5917 43.9107 24.5917L43.8577 24.5415V28.5043H39.8949L39.9451 28.5545V24.5415L39.8921 24.5917Z" fill="white"/>
<path d="M11.8412 56.6526V52.687C13.2142 52.687 14.5119 52.687 15.8083 52.687L15.7553 52.6382V56.6512L15.8055 56.601H11.7924L11.8412 56.654V56.6526Z" fill="white"/>
<path d="M3.91548 56.6524V52.7871H7.82956C7.82956 54.069 7.82956 55.3607 7.82956 56.6524L7.87834 56.5994H3.8653L3.91408 56.6524H3.91548Z" fill="white"/>
<path d="M92.1287 56.6468H95.994V60.4689H92.1802C92.1802 59.1744 92.1802 57.8855 92.1802 56.5952L92.1287 56.6468Z" fill="white"/>
<path d="M35.9808 64.577V60.6685C37.3552 60.6685 38.685 60.6685 40.0176 60.6699C40.0204 60.6713 39.9604 60.6197 39.9618 60.6211C39.9395 61.9393 39.9158 63.256 39.8907 64.5728L39.9437 64.524H35.9307L35.9795 64.577H35.9808Z" fill="white"/>
<path d="M24.0351 64.5711H27.9004V68.3932H24.0867C24.0867 67.0987 24.0867 65.8098 24.0867 64.5195L24.0351 64.5711Z" fill="white"/>
<path d="M11.7478 44.4629V48.2223H7.95502V44.4629H11.7478Z" fill="white"/>
<path d="M39.8921 64.5741H43.7574V68.4881C42.475 68.4881 41.1828 68.4881 39.8921 68.4881L39.9451 68.5369V64.5239L39.8921 64.5727V64.5741Z" fill="white"/>
<path d="M56.1562 68.5396C56.1562 67.2006 56.1562 65.8615 56.1562 64.5225L56.106 64.5754H60.0689V68.5382L60.1191 68.4881H56.106L56.1562 68.541V68.5396Z" fill="white"/>
<path d="M96.1946 68.3778V64.6519H100V68.3778H96.1946Z" fill="white"/>
<path d="M3.77889 48.3089H0.071106V44.5063H3.78028V48.3089H3.77889Z" fill="white"/>
<path d="M64.0819 40.4444V36.5791H67.996C67.996 37.861 67.996 39.1527 67.996 40.4444L68.0448 40.3914H64.0317L64.0805 40.4444H64.0819Z" fill="white"/>
<path d="M64.0345 4.42544H67.897V8.33531C66.6132 8.33531 65.3225 8.33531 64.0303 8.33531L64.0833 8.38408V4.37109L64.0345 4.42404V4.42544Z" fill="white"/>
<path d="M60.0745 24.5361V28.4H56.251V24.5877C57.5459 24.5877 58.8353 24.5877 60.1246 24.5877L60.0731 24.5361H60.0745Z" fill="white"/>
<path d="M32.0765 88.5836V84.8521H35.84V88.5836H32.0765Z" fill="white"/>
<path d="M60.119 4.42534V0.560059H64.0331C64.0331 1.84198 64.0331 3.13366 64.0331 4.42534L64.0819 4.3724C62.7437 4.3724 61.407 4.3724 60.0688 4.3724L60.1176 4.42534H60.119Z" fill="white"/>
<path d="M15.811 36.433C14.4478 36.4135 13.0846 36.394 11.7185 36.3717C11.7158 36.3703 11.7757 36.4218 11.7743 36.4205C11.7715 35.1831 11.7715 33.9472 11.7715 32.6025H15.7595C15.7595 33.9109 15.7595 35.1984 15.7595 36.4845L15.811 36.433Z" fill="white"/>
<path d="M60.126 96.5858H56.2607V92.7637H60.0745C60.0745 94.0581 60.0745 95.347 60.0745 96.6373L60.126 96.5858Z" fill="white"/>
<path d="M35.978 4.42786V0.563965H39.8015V4.3763C38.5066 4.3763 37.2172 4.3763 35.9279 4.3763L35.9794 4.42786H35.978Z" fill="white"/>
<path d="M72.0704 72.543H75.8311V76.3344H72.0704V72.543Z" fill="white"/>
<path d="M80.1104 8.47705H92.0255V20.4045C88.3484 20.4045 84.7577 20.4352 81.1698 20.3586C80.8088 20.3502 80.1634 19.7037 80.1564 19.3428C80.0798 15.7562 80.1104 12.1682 80.1104 8.47705Z" fill="white"/>
<path d="M7.95776 92.4933V80.7163H19.7655V92.4933H7.95776Z" fill="white"/>
<path d="M7.97314 20.299V8.49414H19.7962V20.299H7.97314Z" fill="white"/>
<path d="M24.0922 52.6382V56.6512C22.6342 56.6512 21.1762 56.6512 19.7181 56.6512C19.7181 55.3135 19.7181 53.9758 19.7181 52.6382H24.0922Z" fill="white"/>
</g>
<defs>
<clipPath id="clip0_160_16755">
<rect width="100" height="100" fill="white" transform="translate(0 0.5)"/>
</clipPath>
</defs>
</svg>
