{
	"asset":{
		"generator":"Khronos glTF Blender I/O v3.5.30",
		"version":"2.0"
	},
	"scene":0,
	"scenes":[
		{
			"name":"Scene",
			"nodes":[
				1
			]
		}
	],
	"nodes":[
		{
			"mesh":0,
			"name":"animate",
			"translation":[
				-0.002725621685385704,
				2.314248561859131,
				0.08317097276449203
			]
		},
		{
			"children":[
				0
			],
			"mesh":1,
			"name":"Cylinder.003",
			"rotation":[
				0,
				-0.02255694381892681,
				0,
				0.9997455477714539
			]
		}
	],
	"animations":[
		{
			"channels":[
				{
					"sampler":0,
					"target":{
						"node":1,
						"path":"translation"
					}
				},
				{
					"sampler":1,
					"target":{
						"node":1,
						"path":"rotation"
					}
				},
				{
					"sampler":2,
					"target":{
						"node":1,
						"path":"scale"
					}
				}
			],
			"name":"Cylinder.003",
			"samplers":[
				{
					"input":8,
					"interpolation":"LINEAR",
					"output":9
				},
				{
					"input":8,
					"interpolation":"LINEAR",
					"output":10
				},
				{
					"input":8,
					"interpolation":"LINEAR",
					"output":11
				}
			]
		},
		{
			"channels":[
				{
					"sampler":0,
					"target":{
						"node":0,
						"path":"translation"
					}
				},
				{
					"sampler":1,
					"target":{
						"node":0,
						"path":"rotation"
					}
				}
			],
			"name":"Cylinder.002Action.001",
			"samplers":[
				{
					"input":8,
					"interpolation":"STEP",
					"output":12
				},
				{
					"input":8,
					"interpolation":"LINEAR",
					"output":13
				}
			]
		}
	],
	"materials":[
		{
			"doubleSided":true,
			"name":"PesoHead.001",
			"normalTexture":{
				"index":0
			},
			"pbrMetallicRoughness":{
				"baseColorTexture":{
					"index":1
				},
				"metallicFactor":0.12272727489471436,
				"roughnessFactor":0.538636326789856
			}
		}
	],
	"meshes":[
		{
			"name":"Cylinder.004",
			"primitives":[
				{
					"attributes":{
						"POSITION":0,
						"TEXCOORD_0":1,
						"NORMAL":2
					},
					"indices":3,
					"material":0
				}
			]
		},
		{
			"name":"Cylinder.002",
			"primitives":[
				{
					"attributes":{
						"POSITION":4,
						"TEXCOORD_0":5,
						"NORMAL":6
					},
					"indices":7,
					"material":0
				}
			]
		}
	],
	"textures":[
		{
			"sampler":0,
			"source":0
		},
		{
			"sampler":0,
			"source":1
		}
	],
	"images":[
		{
			"bufferView":4,
			"mimeType":"image/jpeg",
			"name":"BobbleHead_Normal"
		},
		{
			"bufferView":5,
			"mimeType":"image/png",
			"name":"Bake_baseColor_PS"
		}
	],
	"accessors":[
		{
			"bufferView":0,
			"componentType":5126,
			"count":1508,
			"max":[
				0.33368828892707825,
				0.5872654318809509,
				0.3827095925807953
			],
			"min":[
				-0.31412264704704285,
				-0.31532055139541626,
				-0.46312215924263
			],
			"type":"VEC3"
		},
		{
			"bufferView":1,
			"componentType":5126,
			"count":1508,
			"type":"VEC2"
		},
		{
			"bufferView":2,
			"componentType":5126,
			"count":1508,
			"type":"VEC3"
		},
		{
			"bufferView":3,
			"componentType":5123,
			"count":8013,
			"type":"SCALAR"
		},
		{
			"bufferView":6,
			"componentType":5126,
			"count":2023,
			"max":[
				0.5528820753097534,
				2.234029531478882,
				0.5528820753097534
			],
			"min":[
				-0.5528520345687866,
				0.006471991539001465,
				-0.5528520345687866
			],
			"type":"VEC3"
		},
		{
			"bufferView":7,
			"componentType":5126,
			"count":2023,
			"type":"VEC2"
		},
		{
			"bufferView":8,
			"componentType":5126,
			"count":2023,
			"type":"VEC3"
		},
		{
			"bufferView":9,
			"componentType":5123,
			"count":9861,
			"type":"SCALAR"
		},
		{
			"bufferView":10,
			"componentType":5126,
			"count":31,
			"max":[
				1.25
			],
			"min":[
				0
			],
			"type":"SCALAR"
		},
		{
			"bufferView":11,
			"componentType":5126,
			"count":31,
			"type":"VEC3"
		},
		{
			"bufferView":12,
			"componentType":5126,
			"count":31,
			"type":"VEC4"
		},
		{
			"bufferView":13,
			"componentType":5126,
			"count":31,
			"type":"VEC3"
		},
		{
			"bufferView":14,
			"componentType":5126,
			"count":31,
			"type":"VEC3"
		},
		{
			"bufferView":15,
			"componentType":5126,
			"count":31,
			"type":"VEC4"
		}
	],
	"bufferViews":[
		{
			"buffer":0,
			"byteLength":18096,
			"byteOffset":0,
			"target":34962
		},
		{
			"buffer":0,
			"byteLength":12064,
			"byteOffset":18096,
			"target":34962
		},
		{
			"buffer":0,
			"byteLength":18096,
			"byteOffset":30160,
			"target":34962
		},
		{
			"buffer":0,
			"byteLength":16026,
			"byteOffset":48256,
			"target":34963
		},
		{
			"buffer":0,
			"byteLength":461478,
			"byteOffset":64284
		},
		{
			"buffer":0,
			"byteLength":239565,
			"byteOffset":525764
		},
		{
			"buffer":0,
			"byteLength":24276,
			"byteOffset":765332,
			"target":34962
		},
		{
			"buffer":0,
			"byteLength":16184,
			"byteOffset":789608,
			"target":34962
		},
		{
			"buffer":0,
			"byteLength":24276,
			"byteOffset":805792,
			"target":34962
		},
		{
			"buffer":0,
			"byteLength":19722,
			"byteOffset":830068,
			"target":34963
		},
		{
			"buffer":0,
			"byteLength":124,
			"byteOffset":849792
		},
		{
			"buffer":0,
			"byteLength":372,
			"byteOffset":849916
		},
		{
			"buffer":0,
			"byteLength":496,
			"byteOffset":850288
		},
		{
			"buffer":0,
			"byteLength":372,
			"byteOffset":850784
		},
		{
			"buffer":0,
			"byteLength":372,
			"byteOffset":851156
		},
		{
			"buffer":0,
			"byteLength":496,
			"byteOffset":851528
		}
	],
	"samplers":[
		{
			"magFilter":9729,
			"minFilter":9987
		}
	],
	"buffers":[
		{
			"byteLength":852024,
			"uri":"data:application/octet-stream;base64,"
		}
	]
}
