{
	"asset":{
		"generator":"Khronos glTF Blender I/O v3.5.30",
		"version":"2.0"
	},
	"scene":0,
	"scenes":[
		{
			"name":"Scene",
			"nodes":[
				0
			]
		}
	],
	"nodes":[
		{
			"mesh":0,
			"name":"panorama"
		}
	],
	"animations":[
		{
			"channels":[
				{
					"sampler":0,
					"target":{
						"node":0,
						"path":"translation"
					}
				},
				{
					"sampler":1,
					"target":{
						"node":0,
						"path":"rotation"
					}
				},
				{
					"sampler":2,
					"target":{
						"node":0,
						"path":"scale"
					}
				}
			],
			"name":"panorama",
			"samplers":[
				{
					"input":4,
					"interpolation":"LINEAR",
					"output":5
				},
				{
					"input":4,
					"interpolation":"LINEAR",
					"output":6
				},
				{
					"input":4,
					"interpolation":"LINEAR",
					"output":7
				}
			]
		}
	],
	"meshes":[
		{
			"name":"PanoG.001",
			"primitives":[
				{
					"attributes":{
						"POSITION":0,
						"TEXCOORD_0":1,
						"NORMAL":2
					},
					"indices":3
				}
			]
		}
	],
	"accessors":[
		{
			"bufferView":0,
			"componentType":5126,
			"count":532,
			"max":[
				0.989587128162384,
				0.9509637355804443,
				0.985870897769928
			],
			"min":[
				-0.9895867109298706,
				-0.9509637355804443,
				-0.9858713150024414
			],
			"type":"VEC3"
		},
		{
			"bufferView":1,
			"componentType":5126,
			"count":532,
			"type":"VEC2"
		},
		{
			"bufferView":2,
			"componentType":5126,
			"count":532,
			"type":"VEC3"
		},
		{
			"bufferView":3,
			"componentType":5123,
			"count":2760,
			"type":"SCALAR"
		},
		{
			"bufferView":4,
			"componentType":5126,
			"count":31,
			"max":[
				1.25
			],
			"min":[
				0
			],
			"type":"SCALAR"
		},
		{
			"bufferView":5,
			"componentType":5126,
			"count":31,
			"type":"VEC3"
		},
		{
			"bufferView":6,
			"componentType":5126,
			"count":31,
			"type":"VEC4"
		},
		{
			"bufferView":7,
			"componentType":5126,
			"count":31,
			"type":"VEC3"
		}
	],
	"bufferViews":[
		{
			"buffer":0,
			"byteLength":6384,
			"byteOffset":0,
			"target":34962
		},
		{
			"buffer":0,
			"byteLength":4256,
			"byteOffset":6384,
			"target":34962
		},
		{
			"buffer":0,
			"byteLength":6384,
			"byteOffset":10640,
			"target":34962
		},
		{
			"buffer":0,
			"byteLength":5520,
			"byteOffset":17024,
			"target":34963
		},
		{
			"buffer":0,
			"byteLength":124,
			"byteOffset":22544
		},
		{
			"buffer":0,
			"byteLength":372,
			"byteOffset":22668
		},
		{
			"buffer":0,
			"byteLength":496,
			"byteOffset":23040
		},
		{
			"buffer":0,
			"byteLength":372,
			"byteOffset":23536
		}
	],
	"buffers":[
		{
			"byteLength":23908,
			"uri":"data:application/octet-stream;base64,"
		}
	]
}
